<svg width="35" height="29" viewBox="0 0 35 29" fill="none" xmlns="http://www.w3.org/2000/svg">
<path d="M2.89285 15.6922L13.8729 25.9431C14.3286 26.3684 14.9302 26.6054 15.556 26.6054C16.1819 26.6054 16.7835 26.3684 17.2392 25.9431V25.9431C17.33 25.8593 17.3455 25.7218 17.2781 25.6182C16.1902 23.9462 15.556 21.9466 15.556 19.7999C15.556 13.8936 20.3442 9.10541 26.2505 9.10541C27.5463 9.10541 28.787 9.3366 29.936 9.75738C30.4872 9.95922 31.1116 9.62556 31.1116 9.03857V9.03857V8.68614C31.1116 4.43875 28.043 0.81722 23.8564 0.118435C21.0856 -0.34337 18.2661 0.562012 16.2852 2.54291V2.54291C15.8825 2.94562 15.2296 2.94562 14.8269 2.54291V2.54291C12.846 0.562012 10.0265 -0.34337 7.2557 0.118435C3.06906 0.81722 0.000488281 4.43875 0.000488281 8.68614V9.03857C0.000488281 11.5603 1.04563 13.9726 2.89285 15.6922ZM26.2505 28.5499C28.5711 28.5499 30.7967 27.628 32.4377 25.987C34.0786 24.3461 35.0005 22.1205 35.0005 19.7999C35.0005 17.4792 34.0786 15.2536 32.4377 13.6127C30.7967 11.9717 28.5711 11.0499 26.2505 11.0499C23.9298 11.0499 21.7042 11.9717 20.0633 13.6127C18.4224 15.2536 17.5005 17.4792 17.5005 19.7999C17.5005 22.1205 18.4224 24.3461 20.0633 25.987C21.7042 27.628 23.9298 28.5499 26.2505 28.5499ZM27.2227 15.911V15.911C27.2227 17.5218 28.5285 18.8276 30.1394 18.8276V18.8276C30.6741 18.8276 31.1116 19.2651 31.1116 19.7999C31.1116 20.3346 30.6741 20.7721 30.1394 20.7721V20.7721C28.5285 20.7721 27.2227 22.0779 27.2227 23.6887V23.6887C27.2227 24.2235 26.7852 24.661 26.2505 24.661C25.7158 24.661 25.2783 24.2235 25.2783 23.6887V23.6887C25.2783 22.0779 23.9724 20.7721 22.3616 20.7721V20.7721C21.8269 20.7721 21.3894 20.3346 21.3894 19.7999C21.3894 19.2651 21.8269 18.8276 22.3616 18.8276V18.8276C23.9724 18.8276 25.2783 17.5218 25.2783 15.911V15.911C25.2783 15.3762 25.7158 14.9387 26.2505 14.9387C26.7852 14.9387 27.2227 15.3762 27.2227 15.911Z" fill="#FE009B"/>
</svg>
